<svg xmlns="http://www.w3.org/2000/svg" xmlns:xlink="http://www.w3.org/1999/xlink" version="1.1" width="256" height="256" viewBox="0 0 256 256" xml:space="preserve">
<desc>Created with Fabric.js 1.7.22</desc>
<defs>
</defs>
<g transform="translate(128 128) scale(0.72 0.72)" style="">
	<g style="stroke: none; stroke-width: 0; stroke-dasharray: none; stroke-linecap: butt; stroke-linejoin: miter; stroke-miterlimit: 10; fill: none; fill-rule: nonzero; opacity: 1;" transform="translate(-175.05 -175.05000000000004) scale(3.89 3.89)" >
	<path d="M 55.889 23.389 c -0.093 0 -0.188 -0.014 -0.282 -0.042 c -0.53 -0.156 -0.833 -0.712 -0.677 -1.242 L 60.604 2.85 c -4.385 -1.777 -8.79 -0.428 -13.438 0.995 c -5.222 1.6 -11.068 3.39 -17.333 0.489 l 5.237 17.771 c 0.156 0.53 -0.146 1.086 -0.676 1.242 c -0.528 0.156 -1.086 -0.146 -1.242 -0.676 L 27.231 2.578 c -0.118 -0.4 0.024 -0.831 0.357 -1.082 c 0.334 -0.25 0.787 -0.268 1.138 -0.045 C 35.04 5.467 40.645 3.751 46.58 1.933 c 5.073 -1.554 10.319 -3.162 15.671 -0.536 c 0.438 0.215 0.656 0.713 0.519 1.181 l -5.921 20.093 C 56.72 23.106 56.322 23.389 55.889 23.389 z" style="stroke: none; stroke-width: 1; stroke-dasharray: none; stroke-linecap: butt; stroke-linejoin: miter; stroke-miterlimit: 10; fill: rgb(0,0,0); fill-rule: nonzero; opacity: 1;" transform=" matrix(1 0 0 1 0 0) " stroke-linecap="round" />
	<path d="M 62.93 90.002 H 27.07 c -0.054 0 -0.107 -0.004 -0.161 -0.013 C 15.083 88.066 9.808 82.115 9.808 70.692 c 0 -13.371 8.031 -33.84 21.005 -43.596 c 0.442 -0.332 1.068 -0.242 1.4 0.198 c 0.332 0.441 0.243 1.068 -0.198 1.4 c -12.482 9.385 -20.207 29.107 -20.207 41.997 c 0 10.36 4.59 15.541 15.343 17.31 h 35.697 c 10.753 -1.77 15.343 -6.951 15.343 -17.31 c 0 -12.89 -7.726 -32.612 -20.208 -41.997 c -0.441 -0.332 -0.53 -0.959 -0.198 -1.4 c 0.331 -0.441 0.959 -0.531 1.399 -0.198 c 12.975 9.756 21.007 30.225 21.007 43.596 c 0 11.423 -5.275 17.375 -17.102 19.298 C 63.037 89.998 62.983 90.002 62.93 90.002 z" style="stroke: none; stroke-width: 1; stroke-dasharray: none; stroke-linecap: butt; stroke-linejoin: miter; stroke-miterlimit: 10; fill: rgb(0,0,0); fill-rule: nonzero; opacity: 1;" transform=" matrix(1 0 0 1 0 0) " stroke-linecap="round" />
	<path d="M 45 78.824 c -10.024 0 -18.179 -8.155 -18.179 -18.179 S 34.976 42.467 45 42.467 s 18.179 8.155 18.179 18.179 S 55.024 78.824 45 78.824 z M 45 44.467 c -8.921 0 -16.178 7.257 -16.178 16.178 S 36.079 76.824 45 76.824 c 8.921 0 16.178 -7.257 16.178 -16.178 S 53.921 44.467 45 44.467 z" style="stroke: none; stroke-width: 1; stroke-dasharray: none; stroke-linecap: butt; stroke-linejoin: miter; stroke-miterlimit: 10; fill: rgb(0,0,0); fill-rule: nonzero; opacity: 1;" transform=" matrix(1 0 0 1 0 0) " stroke-linecap="round" />
	<path d="M 39.706 59.37 c -2.215 0 -4.018 -1.803 -4.018 -4.018 c 0 -2.216 1.802 -4.019 4.018 -4.019 s 4.018 1.803 4.018 4.019 C 43.725 57.567 41.922 59.37 39.706 59.37 z M 39.706 53.333 c -1.112 0 -2.018 0.905 -2.018 2.019 c 0 1.112 0.905 2.018 2.018 2.018 c 1.113 0 2.018 -0.905 2.018 -2.018 C 41.724 54.239 40.819 53.333 39.706 53.333 z" style="stroke: none; stroke-width: 1; stroke-dasharray: none; stroke-linecap: butt; stroke-linejoin: miter; stroke-miterlimit: 10; fill: rgb(0,0,0); fill-rule: nonzero; opacity: 1;" transform=" matrix(1 0 0 1 0 0) " stroke-linecap="round" />
	<path d="M 50.293 69.956 c -2.215 0 -4.018 -1.803 -4.018 -4.018 c 0 -2.215 1.803 -4.018 4.018 -4.018 c 2.216 0 4.019 1.803 4.019 4.018 C 54.312 68.153 52.509 69.956 50.293 69.956 z M 50.293 63.921 c -1.112 0 -2.018 0.905 -2.018 2.018 s 0.905 2.018 2.018 2.018 c 1.113 0 2.019 -0.905 2.019 -2.018 S 51.407 63.921 50.293 63.921 z" style="stroke: none; stroke-width: 1; stroke-dasharray: none; stroke-linecap: butt; stroke-linejoin: miter; stroke-miterlimit: 10; fill: rgb(0,0,0); fill-rule: nonzero; opacity: 1;" transform=" matrix(1 0 0 1 0 0) " stroke-linecap="round" />
	<path d="M 36.689 69.956 c -0.256 0 -0.512 -0.098 -0.707 -0.293 c -0.391 -0.391 -0.391 -1.023 0 -1.414 l 16.623 -16.623 c 0.391 -0.391 1.023 -0.391 1.414 0 c 0.391 0.391 0.391 1.023 0 1.414 L 37.396 69.663 C 37.2 69.859 36.944 69.956 36.689 69.956 z" style="stroke: none; stroke-width: 1; stroke-dasharray: none; stroke-linecap: butt; stroke-linejoin: miter; stroke-miterlimit: 10; fill: rgb(0,0,0); fill-rule: nonzero; opacity: 1;" transform=" matrix(1 0 0 1 0 0) " stroke-linecap="round" />
	<path d="M 57.222 29.237 H 32.777 c -2.164 0 -3.924 -1.76 -3.924 -3.924 s 1.76 -3.924 3.924 -3.924 h 24.445 c 2.164 0 3.925 1.76 3.925 3.924 S 59.386 29.237 57.222 29.237 z M 32.777 23.388 c -1.061 0 -1.924 0.863 -1.924 1.924 s 0.863 1.924 1.924 1.924 h 24.445 c 1.062 0 1.925 -0.863 1.925 -1.924 s -0.863 -1.924 -1.925 -1.924 H 32.777 z" style="stroke: none; stroke-width: 1; stroke-dasharray: none; stroke-linecap: butt; stroke-linejoin: miter; stroke-miterlimit: 10; fill: rgb(0,0,0); fill-rule: nonzero; opacity: 1;" transform=" matrix(1 0 0 1 0 0) " stroke-linecap="round" />
</g>
</g>
</svg>