<svg width="319" height="26" viewBox="0 0 319 26" fill="none" xmlns="http://www.w3.org/2000/svg">
<path d="M12.238 20.405V5.064H2.523V3.295H23.722V5.064H13.978V20.405H12.238ZM15.573 22.029V6.688H25.317V1.671H0.928V6.688H10.643V22.029H15.573ZM0.203 7.413V0.946H26.042L28.855 3.933V10.226H19.111V25.567H12.905L9.918 22.754V10.226H3.19L0.203 7.413ZM33.6948 3.295H35.4348V20.405H33.6948V3.295ZM37.0298 1.671H32.0998V22.029H37.0298V1.671ZM31.3748 22.754V0.946H37.7548L40.5678 3.933V25.567H34.3618L31.3748 22.754ZM49.2302 6.05V20.405H47.5192V3.295H48.9982L64.5712 17.65V3.295H66.3112V20.405H64.8612L49.2302 6.05ZM67.9352 1.671H62.9762V13.996L49.5492 1.671H45.8952V22.029H50.8542V9.675L64.3102 22.029H67.9352V1.671ZM45.1702 22.754V0.946H49.8102L62.2512 12.343V0.946H68.6602L71.4732 3.933V25.567H66.9492L54.3922 14.054V25.567H48.1572L45.1702 22.754ZM78.7425 3.295H81.2945L89.7045 11.56L97.9695 3.295H100.492L90.5745 13.184V20.405H88.7765V13.213L78.7425 3.295ZM92.1985 22.029V13.851L104.349 1.671H97.3315L89.6755 9.385L81.9035 1.671H74.8275L87.1815 13.909V22.029H92.1985ZM86.4565 14.199C85.4125 13.1743 84.3201 12.1013 83.1795 10.98C82.0581 9.85867 80.9175 8.72767 79.7575 7.587C78.5975 6.427 77.4471 5.28633 76.3065 4.165C75.1658 3.04367 74.0831 1.97067 73.0585 0.946H82.1935L89.6465 8.37L97.0125 0.946H106.118L108.815 3.933L95.7365 17.012V25.567H89.4435L86.4565 22.754V14.199ZM143.89 10.98C144.354 10.98 144.808 10.9317 145.253 10.835C145.698 10.719 146.094 10.545 146.442 10.313C146.809 10.081 147.099 9.78133 147.312 9.414C147.525 9.02733 147.631 8.573 147.631 8.051C147.631 7.50967 147.525 7.05533 147.312 6.688C147.119 6.30133 146.848 5.992 146.5 5.76C146.152 5.50867 145.756 5.33467 145.311 5.238C144.866 5.122 144.402 5.064 143.919 5.064H131.507V10.98H143.89ZM143.919 6.688C144.132 6.688 144.364 6.70733 144.615 6.746C144.866 6.78467 145.098 6.862 145.311 6.978C145.524 7.07467 145.698 7.21 145.833 7.384C145.968 7.558 146.036 7.78033 146.036 8.051C146.036 8.32167 145.959 8.544 145.804 8.718C145.669 8.87267 145.485 9.008 145.253 9.124C145.04 9.22067 144.808 9.28833 144.557 9.327C144.306 9.36567 144.083 9.385 143.89 9.385H133.131V6.688H143.919ZM145.456 18.636C145.92 18.636 146.384 18.5877 146.848 18.491C147.312 18.375 147.718 18.201 148.066 17.969C148.433 17.7177 148.723 17.4083 148.936 17.041C149.168 16.6543 149.284 16.1903 149.284 15.649C149.284 15.1657 149.187 14.7403 148.994 14.373C148.801 14.0057 148.54 13.706 148.211 13.474C147.882 13.2227 147.505 13.039 147.08 12.923C146.674 12.7877 146.249 12.72 145.804 12.72H131.507V18.636H145.456ZM145.804 14.315C145.997 14.315 146.2 14.344 146.413 14.402C146.645 14.4407 146.848 14.518 147.022 14.634C147.215 14.7307 147.37 14.866 147.486 15.04C147.602 15.214 147.66 15.417 147.66 15.649C147.66 15.939 147.583 16.171 147.428 16.345C147.293 16.519 147.109 16.6543 146.877 16.751C146.664 16.8477 146.423 16.9153 146.152 16.954C145.901 16.9927 145.669 17.012 145.456 17.012H133.131V14.315H145.804ZM143.919 3.295C144.712 3.295 145.446 3.382 146.123 3.556C146.8 3.73 147.38 4.01033 147.863 4.397C148.366 4.78367 148.752 5.27667 149.023 5.876C149.313 6.47533 149.468 7.20033 149.487 8.051C149.487 8.515 149.381 8.95967 149.168 9.385C148.975 9.791 148.733 10.1487 148.443 10.458C148.153 10.7673 147.844 11.0187 147.515 11.212C147.186 11.386 146.906 11.4827 146.674 11.502C147.196 11.5407 147.718 11.676 148.24 11.908C148.762 12.1207 149.226 12.4107 149.632 12.778C150.057 13.1453 150.405 13.5707 150.676 14.054C150.947 14.5373 151.082 15.069 151.082 15.649C151.082 16.519 150.937 17.2633 150.647 17.882C150.357 18.4813 149.951 18.9743 149.429 19.361C148.926 19.7283 148.327 19.999 147.631 20.173C146.954 20.3277 146.229 20.405 145.456 20.405H129.767V3.295H143.919ZM145.456 22.029C146.5 22.029 147.467 21.913 148.356 21.681C149.245 21.4297 150.009 21.0527 150.647 20.55C151.285 20.028 151.788 19.3707 152.155 18.578C152.522 17.766 152.706 16.7897 152.706 15.649C152.706 14.6823 152.435 13.822 151.894 13.068C151.372 12.314 150.579 11.7147 149.516 11.27C149.748 11.0767 149.961 10.8543 150.154 10.603C150.347 10.3323 150.512 10.052 150.647 9.762C150.782 9.472 150.889 9.182 150.966 8.892C151.043 8.58267 151.082 8.30233 151.082 8.051C151.082 6.949 150.908 6.00167 150.56 5.209C150.212 4.397 149.719 3.73 149.081 3.208C148.462 2.686 147.708 2.29933 146.819 2.048C145.949 1.79667 144.982 1.671 143.919 1.671H128.143V22.029H145.456ZM127.418 0.946H143.919C145.659 0.946 147.235 1.236 148.646 1.816C150.057 2.396 151.372 3.411 152.59 4.861C152.996 5.34433 153.363 5.94367 153.692 6.659C154.021 7.355 154.253 8.08967 154.388 8.863C154.523 9.617 154.523 10.3613 154.388 11.096C154.272 11.8307 153.963 12.459 153.46 12.981C153.963 13.1743 154.388 13.503 154.736 13.967C155.084 14.4117 155.364 14.9047 155.577 15.446C155.809 15.9873 155.973 16.5383 156.07 17.099C156.186 17.6597 156.244 18.143 156.244 18.549C156.244 19.8057 156.041 20.8787 155.635 21.768C155.248 22.638 154.707 23.3533 154.011 23.914C153.315 24.494 152.484 24.9097 151.517 25.161C150.55 25.4317 149.497 25.567 148.356 25.567H130.405L127.418 22.754V0.946ZM180.163 14.112L174.044 5.441L167.78 14.112H180.163ZM177.031 12.546H170.883L173.986 8.196L177.031 12.546ZM184.484 20.405L181.352 15.91H166.533C165.991 16.6447 165.46 17.3987 164.938 18.172C164.435 18.926 163.913 19.6703 163.372 20.405H161.052C163.101 17.5243 165.141 14.6727 167.171 11.85C169.22 9.02733 171.26 6.17567 173.29 3.295H174.682L186.659 20.405H184.484ZM172.507 1.671L158.007 22.029H164.155L167.345 17.534H180.453L183.614 22.029H189.762L175.552 1.671H172.507ZM178.8 3.933L193.88 25.567H186.166L183.237 22.754L182.048 21.072H170.593C170.361 21.42 170.1 21.7873 169.81 22.174C169.539 22.5607 169.259 22.9473 168.969 23.334C168.698 23.74 168.427 24.1267 168.157 24.494C167.886 24.8807 167.635 25.2383 167.403 25.567H159.66L156.585 22.754L172.13 0.946H175.929L178.8 3.933ZM196.441 16.432C197.059 17.0313 197.746 17.4857 198.5 17.795C199.254 18.1043 200.037 18.3267 200.849 18.462C201.661 18.578 202.492 18.6457 203.343 18.665C204.193 18.665 205.015 18.665 205.808 18.665C206.098 18.665 206.484 18.6553 206.968 18.636C207.47 18.6167 208.002 18.578 208.563 18.52C209.143 18.4427 209.723 18.346 210.303 18.23C210.883 18.0947 211.405 17.9207 211.869 17.708C212.352 17.4953 212.739 17.244 213.029 16.954C213.338 16.6447 213.493 16.2773 213.493 15.852C213.493 15.4267 213.328 15.0593 213 14.75C212.69 14.4213 212.284 14.141 211.782 13.909C211.279 13.677 210.709 13.4837 210.071 13.329C209.452 13.155 208.833 13.0293 208.215 12.952C207.596 12.8553 207.016 12.7877 206.475 12.749C205.953 12.7103 205.527 12.691 205.199 12.691H205.228C204.764 12.6717 204.193 12.6233 203.517 12.546C202.84 12.4687 202.134 12.3527 201.4 12.198C200.665 12.0433 199.93 11.85 199.196 11.618C198.461 11.3667 197.804 11.067 197.224 10.719C196.644 10.371 196.17 9.965 195.803 9.501C195.435 9.01767 195.252 8.46667 195.252 7.848C195.252 7.17133 195.426 6.59133 195.774 6.108C196.141 5.62467 196.605 5.21867 197.166 4.89C197.746 4.542 198.393 4.27133 199.109 4.078C199.824 3.86533 200.549 3.701 201.284 3.585C202.018 3.469 202.714 3.39167 203.372 3.353C204.048 3.31433 204.619 3.295 205.083 3.295C205.837 3.295 206.6 3.33367 207.374 3.411C208.166 3.469 208.94 3.585 209.694 3.759C210.448 3.933 211.182 4.17467 211.898 4.484C212.613 4.774 213.27 5.151 213.87 5.615L212.333 6.717C211.772 6.33033 211.182 6.03067 210.564 5.818C209.945 5.586 209.307 5.412 208.65 5.296C207.992 5.18 207.325 5.11233 206.649 5.093C205.972 5.05433 205.315 5.035 204.677 5.035C204.232 5.035 203.623 5.064 202.85 5.122C202.096 5.18 201.342 5.30567 200.588 5.499C199.853 5.673 199.215 5.95333 198.674 6.34C198.132 6.70733 197.862 7.21 197.862 7.848C197.862 8.46667 198.123 8.96933 198.645 9.356C199.167 9.72333 199.853 10.023 200.704 10.255C201.554 10.4677 202.521 10.6417 203.604 10.777C204.706 10.893 205.827 11.0187 206.968 11.154C208.108 11.2893 209.22 11.4537 210.303 11.647C211.405 11.821 212.381 12.082 213.232 12.43C214.082 12.7587 214.769 13.2033 215.291 13.764C215.813 14.3053 216.074 15.0013 216.074 15.852C216.074 16.4513 215.89 16.983 215.523 17.447C215.175 17.911 214.711 18.317 214.131 18.665C213.551 18.9937 212.893 19.274 212.159 19.506C211.443 19.7187 210.718 19.8927 209.984 20.028C209.268 20.1633 208.582 20.26 207.925 20.318C207.267 20.376 206.726 20.405 206.301 20.405H204.126C203.333 20.405 202.502 20.376 201.632 20.318C200.762 20.26 199.911 20.1343 199.08 19.941C198.248 19.7283 197.456 19.4383 196.702 19.071C195.948 18.7037 195.281 18.201 194.701 17.563L196.441 16.432ZM192.294 16.954C193.067 18.2107 193.985 19.187 195.049 19.883C196.112 20.5597 197.262 21.0623 198.5 21.391C199.737 21.7003 201.013 21.884 202.328 21.942C203.662 22 204.986 22.029 206.301 22.029C206.881 22.029 207.567 21.9903 208.36 21.913C209.152 21.8163 209.974 21.6713 210.825 21.478C211.675 21.2847 212.507 21.0333 213.319 20.724C214.15 20.3953 214.885 20.0087 215.523 19.564C216.18 19.1 216.702 18.5683 217.089 17.969C217.495 17.3503 217.698 16.6447 217.698 15.852C217.698 14.9047 217.485 14.1023 217.06 13.445C216.654 12.7683 216.112 12.2077 215.436 11.763C214.778 11.299 214.015 10.9317 213.145 10.661C212.294 10.371 211.414 10.1487 210.506 9.994C209.597 9.83933 208.708 9.72333 207.838 9.646C206.968 9.56867 206.194 9.501 205.518 9.443C205.286 9.42367 204.841 9.385 204.184 9.327C203.526 9.24967 202.85 9.153 202.154 9.037C201.458 8.90167 200.839 8.73733 200.298 8.544C199.756 8.35067 199.486 8.11867 199.486 7.848C199.486 7.53867 199.737 7.30667 200.24 7.152C200.742 6.99733 201.313 6.88133 201.951 6.804C202.608 6.72667 203.236 6.688 203.836 6.688C204.454 6.66867 204.87 6.659 205.083 6.659C205.701 6.659 206.33 6.688 206.968 6.746C207.606 6.78467 208.224 6.88133 208.824 7.036C209.442 7.19067 210.022 7.413 210.564 7.703C211.124 7.993 211.637 8.37 212.101 8.834L216.335 5.992C215.6 4.98667 214.769 4.20367 213.841 3.643C212.913 3.063 211.927 2.628 210.883 2.338C209.839 2.048 208.746 1.86433 207.606 1.787C206.484 1.70967 205.353 1.671 204.213 1.671C203.613 1.671 202.927 1.71933 202.154 1.816C201.4 1.89333 200.626 2.02867 199.834 2.222C199.06 2.41533 198.297 2.66667 197.543 2.976C196.808 3.28533 196.151 3.672 195.571 4.136C194.991 4.6 194.527 5.14133 194.179 5.76C193.831 6.35933 193.657 7.05533 193.657 7.848C193.657 8.75667 193.879 9.53967 194.324 10.197C194.768 10.8543 195.358 11.415 196.093 11.879C196.827 12.343 197.659 12.72 198.587 13.01C199.515 13.3 200.452 13.5417 201.4 13.735C202.366 13.909 203.294 14.054 204.184 14.17C205.092 14.2667 205.885 14.3537 206.562 14.431C206.755 14.4503 207.132 14.489 207.693 14.547C208.273 14.605 208.872 14.692 209.491 14.808C210.109 14.9047 210.66 15.04 211.144 15.214C211.627 15.388 211.869 15.6007 211.869 15.852C211.869 16.0647 211.714 16.2483 211.405 16.403C211.095 16.5383 210.699 16.6543 210.216 16.751C209.732 16.8283 209.201 16.8863 208.621 16.925C208.041 16.9637 207.47 16.9927 206.91 17.012C206.368 17.0313 205.875 17.041 205.431 17.041C205.005 17.041 204.706 17.041 204.532 17.041C203.797 17.041 203.072 17.012 202.357 16.954C201.641 16.8767 200.945 16.7413 200.269 16.548C199.592 16.3353 198.954 16.0453 198.355 15.678C197.755 15.3107 197.214 14.8177 196.731 14.199L192.294 16.954ZM196.499 13.474L195.107 12.053C194.43 11.5503 193.898 10.9607 193.512 10.284C193.125 9.588 192.932 8.776 192.932 7.848C192.932 6.95867 193.115 6.17567 193.483 5.499C193.869 4.803 194.372 4.20367 194.991 3.701C195.609 3.19833 196.315 2.773 197.108 2.425C197.9 2.05767 198.712 1.76767 199.544 1.555C200.375 1.34233 201.197 1.18767 202.009 1.091C202.821 0.994333 203.555 0.946 204.213 0.946C205.353 0.946 206.504 0.984666 207.664 1.062C208.824 1.12 209.955 1.294 211.057 1.584C212.178 1.874 213.251 2.31867 214.276 2.918C215.3 3.51733 216.257 4.35833 217.147 5.441C217.746 6.04033 218.22 6.543 218.568 6.949C218.916 7.33567 219.186 7.66433 219.38 7.935C219.592 8.20567 219.747 8.428 219.844 8.602C219.94 8.75667 220.037 8.90167 220.134 9.037L216.422 11.531C216.518 11.6277 216.625 11.7147 216.741 11.792C216.876 11.85 217.06 11.9757 217.292 12.169C217.524 12.3623 217.823 12.6427 218.191 13.01C218.577 13.358 219.09 13.8607 219.728 14.518C220.192 15.0013 220.559 15.62 220.83 16.374C221.1 17.128 221.236 17.9207 221.236 18.752C221.236 19.622 221.023 20.3953 220.598 21.072C220.172 21.7487 219.621 22.3383 218.945 22.841C218.268 23.3437 217.495 23.769 216.625 24.117C215.755 24.465 214.875 24.7453 213.986 24.958C213.096 25.1707 212.226 25.3253 211.376 25.422C210.544 25.5187 209.819 25.567 209.201 25.567C208.06 25.567 206.9 25.567 205.721 25.567C204.541 25.567 203.381 25.4703 202.241 25.277C201.119 25.0837 200.027 24.7647 198.964 24.32C197.9 23.8753 196.924 23.1987 196.035 22.29C195.281 21.594 194.643 20.985 194.121 20.463C193.618 19.9217 193.183 19.4383 192.816 19.013C192.468 18.5683 192.168 18.1623 191.917 17.795C191.685 17.4277 191.462 17.07 191.25 16.722L196.499 13.474ZM226.733 3.295H228.502V10.661L242.915 3.295H245.873L228.937 11.85C231.74 13.3 234.524 14.7307 237.289 16.142C240.073 17.534 242.867 18.955 245.67 20.405H242.915L228.502 13.068V20.405H226.733V3.295ZM230.126 15.707L242.451 22.029L251.47 22C248.222 20.318 245.003 18.636 241.813 16.954C238.623 15.2527 235.404 13.5513 232.156 11.85L251.731 1.671H242.451C240.402 2.75367 238.352 3.817 236.303 4.861C234.254 5.88567 232.195 6.92967 230.126 7.993V1.671H225.138V22.029H230.126V15.707ZM237.84 14.054L240.392 15.388C241.32 15.8713 242.277 16.374 243.263 16.896C244.268 17.418 245.274 17.94 246.279 18.462C247.284 18.984 248.28 19.506 249.266 20.028C250.271 20.55 251.228 21.043 252.137 21.507L258.923 25.538L245.177 25.567L233.664 19.651V25.567H227.4L224.413 22.754V0.946H230.851L233.664 3.933V5.354C234.321 5.02533 234.959 4.70633 235.578 4.397C236.216 4.06833 236.873 3.73 237.55 3.382C238.227 3.034 238.942 2.66667 239.696 2.28C240.469 1.874 241.32 1.42933 242.248 0.946H252.079L255.733 4.745L237.84 14.054ZM278.153 10.98V12.72H263.392V18.636H281.169V20.405H261.594V3.295H281.14V5.064H263.392V10.98H278.153ZM282.764 6.688V1.671H259.97V22.029H282.793V17.012H264.987V14.315H279.748V9.385H264.987V6.688H282.764ZM259.245 22.754V0.946H283.489L286.302 3.933V10.226H281.865L283.286 11.647V16.287L286.331 19.274V25.567H262.232L259.245 22.754ZM301.558 5.064H291.843V3.295H313.042V5.064H303.298V20.405H301.558V5.064ZM304.893 6.688H314.637V1.671H290.248V6.688H299.963V22.029H304.893V6.688ZM289.523 7.413V0.946H315.362L318.175 3.933V10.226H308.431V25.567H302.225L299.238 22.754V10.226H292.51L289.523 7.413Z" fill="white"/>
</svg>
